<svg xmlns="http://www.w3.org/2000/svg" viewBox="0 0 48 48" width="48" height="48">
  <defs>
    <linearGradient id="w" x1="0%" y1="0%" x2="100%" y2="100%">
      <stop offset="0%" stop-color="#80DEEA"/>
      <stop offset="100%" stop-color="#00ACC1"/>
    </linearGradient>
    <filter id="g">
      <feGaussianBlur stdDeviation="1" result="b"/>
      <feMerge><feMergeNode in="b"/><feMergeNode in="SourceGraphic"/></feMerge>
    </filter>
  </defs>
  <!-- Wind swirl shape -->
  <path d="M30 4 Q42 4 42 14 Q42 22 34 24 Q44 26 44 34 Q44 44 30 44 Q18 44 14 36 L20 32 Q22 38 30 38 Q36 38 36 34 Q36 30 30 28 L16 26 L18 20 L30 22 Q36 22 36 16 Q36 10 28 10 L12 12 L14 6 Z" fill="url(#w)" stroke="#00838F" stroke-width="1" fill-rule="evenodd" filter="url(#g)"/>
</svg>